<svg width="292" height="133" viewBox="0 0 292 133" fill="none" xmlns="http://www.w3.org/2000/svg">
<path d="M84.864 133H71.424L22.528 57.096H22.016C22.1013 58.632 22.1867 60.3387 22.272 62.216C22.4427 64.0933 22.5707 66.1413 22.656 68.36C22.7413 70.4933 22.8267 72.712 22.912 75.016C22.9973 77.32 23.04 79.624 23.04 81.928V133H12.416V41.608H25.728L74.496 117.256H75.008C74.9227 116.232 74.8373 114.824 74.752 113.032C74.6667 111.155 74.5813 109.107 74.496 106.888C74.4107 104.584 74.3253 102.237 74.24 99.848C74.1547 97.4587 74.112 95.24 74.112 93.192V41.608H84.864V133Z" fill="black"/>
<path d="M117.864 133H104.424L55.528 57.096H55.016C55.1013 58.632 55.1867 60.3387 55.272 62.216C55.4427 64.0933 55.5707 66.1413 55.656 68.36C55.7413 70.4933 55.8267 72.712 55.912 75.016C55.9973 77.32 56.04 79.624 56.04 81.928V133H45.416V41.608H58.728L107.496 117.256H108.008C107.923 116.232 107.837 114.824 107.752 113.032C107.667 111.155 107.581 109.107 107.496 106.888C107.411 104.584 107.325 102.237 107.24 99.848C107.155 97.4587 107.112 95.24 107.112 93.192V41.608H117.864V133Z" fill="black"/>
</svg>
