<svg width="377" height="285" viewBox="0 0 377 285" fill="none" xmlns="http://www.w3.org/2000/svg">
<ellipse cx="153" cy="142.5" rx="153" ry="142.5" fill="white"/>
<path d="M169.864 185H156.424L107.528 109.096H107.016C107.101 110.632 107.187 112.339 107.272 114.216C107.443 116.093 107.571 118.141 107.656 120.36C107.741 122.493 107.827 124.712 107.912 127.016C107.997 129.32 108.04 131.624 108.04 133.928V185H97.416V93.608H110.728L159.496 169.256H160.008C159.923 168.232 159.837 166.824 159.752 165.032C159.667 163.155 159.581 161.107 159.496 158.888C159.411 156.584 159.325 154.237 159.24 151.848C159.155 149.459 159.112 147.24 159.112 145.192V93.608H169.864V185Z" fill="black"/>
<path d="M202.864 185H189.424L140.528 109.096H140.016C140.101 110.632 140.187 112.339 140.272 114.216C140.443 116.093 140.571 118.141 140.656 120.36C140.741 122.493 140.827 124.712 140.912 127.016C140.997 129.32 141.04 131.624 141.04 133.928V185H130.416V93.608H143.728L192.496 169.256H193.008C192.923 168.232 192.837 166.824 192.752 165.032C192.667 163.155 192.581 161.107 192.496 158.888C192.411 156.584 192.325 154.237 192.24 151.848C192.155 149.459 192.112 147.24 192.112 145.192V93.608H202.864V185Z" fill="black"/>
</svg>
