<svg width="380" height="285" viewBox="0 0 380 285" fill="none" xmlns="http://www.w3.org/2000/svg">
<ellipse cx="153" cy="142.5" rx="153" ry="142.5" fill="black"/>
<path d="M171.864 189H158.424L109.528 113.096H109.016C109.101 114.632 109.187 116.339 109.272 118.216C109.443 120.093 109.571 122.141 109.656 124.36C109.741 126.493 109.827 128.712 109.912 131.016C109.997 133.32 110.04 135.624 110.04 137.928V189H99.416V97.608H112.728L161.496 173.256H162.008C161.923 172.232 161.837 170.824 161.752 169.032C161.667 167.155 161.581 165.107 161.496 162.888C161.411 160.584 161.325 158.237 161.24 155.848C161.155 153.459 161.112 151.24 161.112 149.192V97.608H171.864V189Z" fill="white"/>
<path d="M205.864 189H192.424L143.528 113.096H143.016C143.101 114.632 143.187 116.339 143.272 118.216C143.443 120.093 143.571 122.141 143.656 124.36C143.741 126.493 143.827 128.712 143.912 131.016C143.997 133.32 144.04 135.624 144.04 137.928V189H133.416V97.608H146.728L195.496 173.256H196.008C195.923 172.232 195.837 170.824 195.752 169.032C195.667 167.155 195.581 165.107 195.496 162.888C195.411 160.584 195.325 158.237 195.24 155.848C195.155 153.459 195.112 151.24 195.112 149.192V97.608H205.864V189Z" fill="white"/>
</svg>
