<svg width="293" height="133" viewBox="0 0 293 133" fill="none" xmlns="http://www.w3.org/2000/svg">
<path d="M84.864 133H71.424L22.528 57.096H22.016C22.1013 58.632 22.1867 60.3387 22.272 62.216C22.4427 64.0933 22.5707 66.1413 22.656 68.36C22.7413 70.4933 22.8267 72.712 22.912 75.016C22.9973 77.32 23.04 79.624 23.04 81.928V133H12.416V41.608H25.728L74.496 117.256H75.008C74.9227 116.232 74.8373 114.824 74.752 113.032C74.6667 111.155 74.5813 109.107 74.496 106.888C74.4107 104.584 74.3253 102.237 74.24 99.848C74.1547 97.4587 74.112 95.24 74.112 93.192V41.608H84.864V133Z" fill="white"/>
<path d="M118.864 133H105.424L56.528 57.096H56.016C56.1013 58.632 56.1867 60.3387 56.272 62.216C56.4427 64.0933 56.5707 66.1413 56.656 68.36C56.7413 70.4933 56.8267 72.712 56.912 75.016C56.9973 77.32 57.04 79.624 57.04 81.928V133H46.416V41.608H59.728L108.496 117.256H109.008C108.923 116.232 108.837 114.824 108.752 113.032C108.667 111.155 108.581 109.107 108.496 106.888C108.411 104.584 108.325 102.237 108.24 99.848C108.155 97.4587 108.112 95.24 108.112 93.192V41.608H118.864V133Z" fill="white"/>
</svg>
